<mxfile host="app.diagrams.net" agent="Mozilla/5.0 (X11; Linux x86_64) AppleWebKit/537.36 (KHTML, like Gecko) Chrome/130.0.0.0 Safari/537.36" version="24.8.3">
  <diagram name="Страница — 1" id="hKj7CmazhqKdd8WwJHWp">
    <mxGraphModel dx="2001" dy="760" grid="1" gridSize="10" guides="1" tooltips="1" connect="1" arrows="1" fold="1" page="1" pageScale="1" pageWidth="827" pageHeight="1169" math="0" shadow="0">
      <root>
        <mxCell id="0" />
        <mxCell id="1" parent="0" />
        <mxCell id="cYZlChJQ-sGTbZ9Pjbkg-2" value="&lt;p style=&quot;margin:0px;margin-top:4px;text-align:center;&quot;&gt;&lt;b&gt;Hospital&lt;/b&gt;&lt;/p&gt;&lt;hr size=&quot;1&quot; style=&quot;border-style:solid;&quot;&gt;&lt;p style=&quot;margin:0px;margin-left:4px;&quot;&gt;+ name: string&lt;/p&gt;&lt;p style=&quot;margin:0px;margin-left:4px;&quot;&gt;+ addres: string&lt;/p&gt;&lt;hr size=&quot;1&quot; style=&quot;border-style:solid;&quot;&gt;&lt;p style=&quot;margin:0px;margin-left:4px;&quot;&gt;+ addDepartment(dep: Department)&lt;/p&gt;&lt;p style=&quot;margin:0px;margin-left:4px;&quot;&gt;+ getDepartments(): Department[*]&lt;/p&gt;" style="verticalAlign=top;align=left;overflow=fill;html=1;whiteSpace=wrap;" parent="1" vertex="1">
          <mxGeometry x="283" y="219.38" width="230" height="113.75" as="geometry" />
        </mxCell>
        <mxCell id="cYZlChJQ-sGTbZ9Pjbkg-3" value="&lt;p style=&quot;margin:0px;margin-top:4px;text-align:center;&quot;&gt;&lt;b&gt;Department&lt;/b&gt;&lt;/p&gt;&lt;hr size=&quot;1&quot; style=&quot;border-style:solid;&quot;&gt;&lt;p style=&quot;margin:0px;margin-left:4px;&quot;&gt;+ name: string&lt;/p&gt;&lt;hr size=&quot;1&quot; style=&quot;border-style:solid;&quot;&gt;&lt;p style=&quot;margin:0px;margin-left:4px;&quot;&gt;+ addStaff(post: string): MedicalWorker&lt;/p&gt;&lt;p style=&quot;margin:0px;margin-left:4px;&quot;&gt;+ removeStaff(MedicalWorker)&lt;/p&gt;&lt;p style=&quot;margin:0px;margin-left:4px;&quot;&gt;+ getStaff(): MedicalWorker[*]&lt;/p&gt;" style="verticalAlign=top;align=left;overflow=fill;html=1;whiteSpace=wrap;" parent="1" vertex="1">
          <mxGeometry x="624" y="218.13" width="290" height="116.25" as="geometry" />
        </mxCell>
        <mxCell id="cYZlChJQ-sGTbZ9Pjbkg-4" value="" style="endArrow=diamondThin;endFill=1;endSize=24;html=1;rounded=0;entryX=1;entryY=0.5;entryDx=0;entryDy=0;exitX=0;exitY=0.5;exitDx=0;exitDy=0;" parent="1" source="cYZlChJQ-sGTbZ9Pjbkg-3" target="cYZlChJQ-sGTbZ9Pjbkg-2" edge="1">
          <mxGeometry width="160" relative="1" as="geometry">
            <mxPoint x="334" y="396.25" as="sourcePoint" />
            <mxPoint x="494" y="396.25" as="targetPoint" />
          </mxGeometry>
        </mxCell>
        <mxCell id="cYZlChJQ-sGTbZ9Pjbkg-9" value="" style="endArrow=diamondThin;endFill=0;endSize=24;html=1;rounded=0;entryX=0.5;entryY=1;entryDx=0;entryDy=0;exitX=0.5;exitY=0;exitDx=0;exitDy=0;edgeStyle=orthogonalEdgeStyle;" parent="1" source="cYZlChJQ-sGTbZ9Pjbkg-79" target="cYZlChJQ-sGTbZ9Pjbkg-3" edge="1">
          <mxGeometry width="160" relative="1" as="geometry">
            <mxPoint x="944" y="597.9200000000001" as="sourcePoint" />
            <mxPoint x="534" y="596.25" as="targetPoint" />
          </mxGeometry>
        </mxCell>
        <mxCell id="cYZlChJQ-sGTbZ9Pjbkg-11" value="*" style="edgeLabel;html=1;align=center;verticalAlign=middle;resizable=0;points=[];" parent="cYZlChJQ-sGTbZ9Pjbkg-9" vertex="1" connectable="0">
          <mxGeometry x="-0.7524" y="1" relative="1" as="geometry">
            <mxPoint x="-36" y="107" as="offset" />
          </mxGeometry>
        </mxCell>
        <mxCell id="cYZlChJQ-sGTbZ9Pjbkg-21" value="&lt;p style=&quot;margin:0px;margin-top:4px;text-align:center;&quot;&gt;&lt;b&gt;Nurse&lt;/b&gt;&lt;/p&gt;&lt;hr size=&quot;1&quot; style=&quot;border-style:solid;&quot;&gt;&lt;p style=&quot;margin:0px;margin-left:4px;&quot;&gt;+ qualification: string&lt;/p&gt;&lt;hr size=&quot;1&quot; style=&quot;border-style:solid;&quot;&gt;&lt;p style=&quot;margin:0px;margin-left:4px;&quot;&gt;+ assistDoctor(m: MedicalWorker)&lt;/p&gt;&lt;p style=&quot;margin:0px;margin-left:4px;&quot;&gt;+ takeAnalysis(p: Patient)&lt;/p&gt;" style="verticalAlign=top;align=left;overflow=fill;html=1;whiteSpace=wrap;" parent="1" vertex="1">
          <mxGeometry x="703" y="946.25" width="191" height="90" as="geometry" />
        </mxCell>
        <mxCell id="cYZlChJQ-sGTbZ9Pjbkg-22" value="&lt;p style=&quot;margin:0px;margin-top:4px;text-align:center;&quot;&gt;&lt;b&gt;Doctor&lt;/b&gt;&lt;/p&gt;&lt;hr size=&quot;1&quot; style=&quot;border-style:solid;&quot;&gt;&lt;p style=&quot;margin:0px;margin-left:4px;&quot;&gt;+ specialization: string&lt;/p&gt;&lt;hr size=&quot;1&quot; style=&quot;border-style:solid;&quot;&gt;&lt;p style=&quot;margin:0px;margin-left:4px;&quot;&gt;+ complaintsAnalysis(comlaints: string[*])&lt;/p&gt;&lt;p style=&quot;margin:0px;margin-left:4px;&quot;&gt;+ patientCheckup(p: Patient)&lt;/p&gt;&lt;p style=&quot;margin:0px;margin-left:4px;&quot;&gt;+ addDiagnosis(medicalCard: MedicalCard)&lt;/p&gt;&lt;p style=&quot;margin:0px;margin-left:4px;&quot;&gt;+ prescribeTreatment(medicalCard: MedicalCard)&lt;/p&gt;" style="verticalAlign=top;align=left;overflow=fill;html=1;whiteSpace=wrap;" parent="1" vertex="1">
          <mxGeometry x="356" y="936.25" width="280" height="123.75" as="geometry" />
        </mxCell>
        <mxCell id="cYZlChJQ-sGTbZ9Pjbkg-28" value="&lt;p style=&quot;margin:0px;margin-top:4px;text-align:center;&quot;&gt;&lt;b&gt;Reception&lt;/b&gt;&lt;/p&gt;&lt;hr size=&quot;1&quot; style=&quot;border-style:solid;&quot;&gt;&lt;p style=&quot;margin:0px;margin-left:4px;&quot;&gt;+ phone_number: string&lt;/p&gt;&lt;hr size=&quot;1&quot; style=&quot;border-style:solid;&quot;&gt;&lt;p style=&quot;margin: 0px 0px 0px 4px;&quot;&gt;+ scheduleAppointment(p: Patient, complaints: string, datetime: string): Appointment[*]&lt;/p&gt;&lt;p style=&quot;margin: 0px 0px 0px 4px;&quot;&gt;- chooseDepartment(complaints: string): Department&lt;/p&gt;&lt;p style=&quot;margin: 0px 0px 0px 4px;&quot;&gt;+ cancelAppointment(a: Appointment, p: Patient)&lt;/p&gt;&lt;p style=&quot;margin: 0px 0px 0px 4px;&quot;&gt;+ createMedicineCard(p: Patient)&lt;/p&gt;&lt;p style=&quot;margin: 0px 0px 0px 4px;&quot;&gt;+ getMedicalCard(p: Patient): MedicalCard&lt;/p&gt;&lt;p style=&quot;margin: 0px 0px 0px 4px;&quot;&gt;+ getAppointments(p: Patient): Appointment[*]&lt;/p&gt;" style="verticalAlign=top;align=left;overflow=fill;html=1;whiteSpace=wrap;" parent="1" vertex="1">
          <mxGeometry x="-290" y="199.39" width="474" height="153.74" as="geometry" />
        </mxCell>
        <mxCell id="cYZlChJQ-sGTbZ9Pjbkg-29" value="" style="endArrow=diamondThin;endFill=1;endSize=24;html=1;rounded=0;exitX=1;exitY=0.5;exitDx=0;exitDy=0;entryX=0;entryY=0.5;entryDx=0;entryDy=0;" parent="1" source="cYZlChJQ-sGTbZ9Pjbkg-28" target="cYZlChJQ-sGTbZ9Pjbkg-2" edge="1">
          <mxGeometry width="160" relative="1" as="geometry">
            <mxPoint x="214" y="386.25" as="sourcePoint" />
            <mxPoint x="264" y="336.25" as="targetPoint" />
          </mxGeometry>
        </mxCell>
        <mxCell id="cYZlChJQ-sGTbZ9Pjbkg-76" value="1" style="edgeLabel;html=1;align=center;verticalAlign=middle;resizable=0;points=[];" parent="cYZlChJQ-sGTbZ9Pjbkg-29" vertex="1" connectable="0">
          <mxGeometry x="-0.5913" y="4" relative="1" as="geometry">
            <mxPoint x="-12" y="-11" as="offset" />
          </mxGeometry>
        </mxCell>
        <mxCell id="cYZlChJQ-sGTbZ9Pjbkg-38" value="" style="endArrow=open;endFill=1;endSize=12;html=1;rounded=0;exitX=0.5;exitY=0;exitDx=0;exitDy=0;edgeStyle=orthogonalEdgeStyle;entryX=0.25;entryY=1;entryDx=0;entryDy=0;" parent="1" source="cYZlChJQ-sGTbZ9Pjbkg-41" target="cYZlChJQ-sGTbZ9Pjbkg-28" edge="1">
          <mxGeometry width="160" relative="1" as="geometry">
            <mxPoint x="-196" y="496.25" as="sourcePoint" />
            <mxPoint x="74" y="386.25" as="targetPoint" />
            <Array as="points">
              <mxPoint x="-226" y="466" />
              <mxPoint x="-172" y="466" />
              <mxPoint x="-172" y="366" />
            </Array>
          </mxGeometry>
        </mxCell>
        <mxCell id="cYZlChJQ-sGTbZ9Pjbkg-41" value="&lt;p style=&quot;margin:0px;margin-top:4px;text-align:center;&quot;&gt;&lt;b&gt;Patient&lt;/b&gt;&lt;/p&gt;&lt;hr size=&quot;1&quot; style=&quot;border-style:solid;&quot;&gt;&lt;p style=&quot;margin:0px;margin-left:4px;&quot;&gt;+ name: string&lt;/p&gt;&lt;p style=&quot;margin:0px;margin-left:4px;&quot;&gt;+ dateofBirth: DateTime&lt;/p&gt;&lt;p style=&quot;margin:0px;margin-left:4px;&quot;&gt;+ complaints: string[*]&lt;/p&gt;&lt;hr size=&quot;1&quot; style=&quot;border-style:solid;&quot;&gt;&lt;p style=&quot;margin:0px;margin-left:4px;&quot;&gt;&lt;span style=&quot;background-color: initial;&quot;&gt;+ getComplaints(): string[*]&lt;/span&gt;&lt;/p&gt;&lt;p style=&quot;margin:0px;margin-left:4px;&quot;&gt;&lt;span style=&quot;background-color: initial;&quot;&gt;+ makeAppointment(complaints: string, datetimes: string[*])&lt;/span&gt;&lt;/p&gt;&lt;p style=&quot;margin:0px;margin-left:4px;&quot;&gt;&lt;span style=&quot;background-color: initial;&quot;&gt;+ cameAppointment(p: Patient)&lt;/span&gt;&lt;/p&gt;" style="verticalAlign=top;align=left;overflow=fill;html=1;whiteSpace=wrap;" parent="1" vertex="1">
          <mxGeometry x="-392.56" y="566.7099999999999" width="333.12" height="141.97" as="geometry" />
        </mxCell>
        <mxCell id="cYZlChJQ-sGTbZ9Pjbkg-51" value="&lt;p style=&quot;margin:0px;margin-top:4px;text-align:center;&quot;&gt;&lt;b&gt;Appointment&lt;/b&gt;&lt;/p&gt;&lt;hr size=&quot;1&quot; style=&quot;border-style:solid;&quot;&gt;&lt;p style=&quot;margin:0px;margin-left:4px;&quot;&gt;+ date:&amp;nbsp;&lt;span style=&quot;background-color: initial;&quot;&gt;DateTime&lt;/span&gt;&lt;/p&gt;&lt;p style=&quot;margin:0px;margin-left:4px;&quot;&gt;+ staff: MedicalWorker[*]&lt;/p&gt;&lt;p style=&quot;margin:0px;margin-left:4px;&quot;&gt;+ patient: Patient&lt;/p&gt;" style="verticalAlign=top;align=left;overflow=fill;html=1;whiteSpace=wrap;" parent="1" vertex="1">
          <mxGeometry x="140" y="593.6800000000001" width="170" height="88.02" as="geometry" />
        </mxCell>
        <mxCell id="cYZlChJQ-sGTbZ9Pjbkg-58" value="&lt;p style=&quot;margin:0px;margin-top:4px;text-align:center;&quot;&gt;&lt;b&gt;MedicalCard&lt;/b&gt;&lt;/p&gt;&lt;hr size=&quot;1&quot; style=&quot;border-style:solid;&quot;&gt;&lt;p style=&quot;margin:0px;margin-left:4px;&quot;&gt;+ number: int&lt;/p&gt;&lt;p style=&quot;margin:0px;margin-left:4px;&quot;&gt;+ patient: Patient&lt;/p&gt;&lt;hr size=&quot;1&quot; style=&quot;border-style:solid;&quot;&gt;&lt;p style=&quot;margin:0px;margin-left:4px;&quot;&gt;+ getPatientDiagnosis(p: Patient): Diagnosis[*]&lt;/p&gt;&lt;p style=&quot;margin:0px;margin-left:4px;&quot;&gt;+ updateDiagnosis(d: Diagnosis)&lt;/p&gt;" style="verticalAlign=top;align=left;overflow=fill;html=1;whiteSpace=wrap;" parent="1" vertex="1">
          <mxGeometry x="-358" y="930" width="264" height="122.5" as="geometry" />
        </mxCell>
        <mxCell id="cYZlChJQ-sGTbZ9Pjbkg-68" value="" style="endArrow=diamondThin;endFill=0;endSize=24;html=1;rounded=0;exitX=0;exitY=0.5;exitDx=0;exitDy=0;entryX=1;entryY=0.5;entryDx=0;entryDy=0;" parent="1" target="cYZlChJQ-sGTbZ9Pjbkg-58" edge="1">
          <mxGeometry width="160" relative="1" as="geometry">
            <mxPoint x="44" y="991.25" as="sourcePoint" />
            <mxPoint x="284" y="996.25" as="targetPoint" />
          </mxGeometry>
        </mxCell>
        <mxCell id="cYZlChJQ-sGTbZ9Pjbkg-79" value="&lt;p style=&quot;margin:0px;margin-top:4px;text-align:center;&quot;&gt;&lt;b&gt;MedicalWorker&lt;/b&gt;&lt;/p&gt;&lt;hr size=&quot;1&quot; style=&quot;border-style:solid;&quot;&gt;&lt;p style=&quot;margin:0px;margin-left:4px;&quot;&gt;+ name: string&lt;/p&gt;&lt;hr size=&quot;1&quot; style=&quot;border-style:solid;&quot;&gt;&lt;p style=&quot;margin:0px;margin-left:4px;&quot;&gt;+ scheduleAppointment(app: Appointment)&lt;/p&gt;&lt;p style=&quot;margin:0px;margin-left:4px;&quot;&gt;+ showWH(): TimeSheet&lt;/p&gt;" style="verticalAlign=top;align=left;overflow=fill;html=1;whiteSpace=wrap;" parent="1" vertex="1">
          <mxGeometry x="544" y="591.98" width="240" height="95" as="geometry" />
        </mxCell>
        <mxCell id="cYZlChJQ-sGTbZ9Pjbkg-80" value="" style="endArrow=block;endSize=16;endFill=0;html=1;rounded=0;exitX=0.5;exitY=0;exitDx=0;exitDy=0;entryX=0.75;entryY=1;entryDx=0;entryDy=0;edgeStyle=orthogonalEdgeStyle;" parent="1" target="cYZlChJQ-sGTbZ9Pjbkg-79" edge="1">
          <mxGeometry x="0.0045" width="160" relative="1" as="geometry">
            <mxPoint x="783" y="946.25" as="sourcePoint" />
            <mxPoint x="724" y="680.9200000000001" as="targetPoint" />
            <Array as="points">
              <mxPoint x="783" y="806.25" />
              <mxPoint x="724" y="806.25" />
            </Array>
            <mxPoint as="offset" />
          </mxGeometry>
        </mxCell>
        <mxCell id="cYZlChJQ-sGTbZ9Pjbkg-87" value="" style="endArrow=block;endSize=16;endFill=0;html=1;rounded=0;exitX=0.5;exitY=0;exitDx=0;exitDy=0;entryX=0.25;entryY=1;entryDx=0;entryDy=0;edgeStyle=orthogonalEdgeStyle;" parent="1" target="cYZlChJQ-sGTbZ9Pjbkg-79" edge="1">
          <mxGeometry width="160" relative="1" as="geometry">
            <mxPoint x="498" y="936.2499999999998" as="sourcePoint" />
            <mxPoint x="606" y="682.0900000000001" as="targetPoint" />
            <Array as="points">
              <mxPoint x="498" y="806.25" />
              <mxPoint x="604" y="806.25" />
            </Array>
          </mxGeometry>
        </mxCell>
        <mxCell id="cYZlChJQ-sGTbZ9Pjbkg-88" style="edgeStyle=orthogonalEdgeStyle;rounded=0;orthogonalLoop=1;jettySize=auto;html=1;exitX=0.5;exitY=1;exitDx=0;exitDy=0;" parent="1" source="cYZlChJQ-sGTbZ9Pjbkg-51" target="cYZlChJQ-sGTbZ9Pjbkg-51" edge="1">
          <mxGeometry relative="1" as="geometry" />
        </mxCell>
        <mxCell id="cYZlChJQ-sGTbZ9Pjbkg-91" value="" style="endArrow=diamondThin;endFill=1;endSize=24;html=1;rounded=0;entryX=1;entryY=0.5;entryDx=0;entryDy=0;exitX=0;exitY=0.5;exitDx=0;exitDy=0;" parent="1" source="cYZlChJQ-sGTbZ9Pjbkg-51" target="cYZlChJQ-sGTbZ9Pjbkg-41" edge="1">
          <mxGeometry width="160" relative="1" as="geometry">
            <mxPoint x="-56" y="636.25" as="sourcePoint" />
            <mxPoint x="104" y="636.25" as="targetPoint" />
          </mxGeometry>
        </mxCell>
        <mxCell id="cYZlChJQ-sGTbZ9Pjbkg-92" value="" style="endArrow=diamondThin;endFill=1;endSize=24;html=1;rounded=0;entryX=0;entryY=0.5;entryDx=0;entryDy=0;exitX=1;exitY=0.5;exitDx=0;exitDy=0;" parent="1" source="cYZlChJQ-sGTbZ9Pjbkg-51" target="cYZlChJQ-sGTbZ9Pjbkg-79" edge="1">
          <mxGeometry width="160" relative="1" as="geometry">
            <mxPoint x="304" y="586.25" as="sourcePoint" />
            <mxPoint x="464" y="586.25" as="targetPoint" />
          </mxGeometry>
        </mxCell>
        <mxCell id="cYZlChJQ-sGTbZ9Pjbkg-94" value="" style="endArrow=diamondThin;endFill=1;endSize=24;html=1;rounded=0;entryX=0.5;entryY=1;entryDx=0;entryDy=0;exitX=0.5;exitY=0;exitDx=0;exitDy=0;" parent="1" source="cYZlChJQ-sGTbZ9Pjbkg-58" target="cYZlChJQ-sGTbZ9Pjbkg-41" edge="1">
          <mxGeometry width="160" relative="1" as="geometry">
            <mxPoint x="-146" y="806.25" as="sourcePoint" />
            <mxPoint x="14" y="806.25" as="targetPoint" />
          </mxGeometry>
        </mxCell>
        <mxCell id="cYZlChJQ-sGTbZ9Pjbkg-95" value="1" style="text;html=1;align=center;verticalAlign=middle;resizable=0;points=[];autosize=1;strokeColor=none;fillColor=none;" parent="1" vertex="1">
          <mxGeometry x="-231" y="900" width="30" height="30" as="geometry" />
        </mxCell>
        <mxCell id="cYZlChJQ-sGTbZ9Pjbkg-96" value="&lt;p style=&quot;margin:0px;margin-top:4px;text-align:center;&quot;&gt;&lt;b style=&quot;background-color: initial;&quot;&gt;TimeSheet&lt;/b&gt;&lt;/p&gt;&lt;hr size=&quot;1&quot; style=&quot;border-style:solid;&quot;&gt;&lt;p style=&quot;margin:0px;margin-left:4px;&quot;&gt;CreateSchedule(m:&amp;nbsp;&lt;span style=&quot;background-color: initial;&quot;&gt;MedicalWorker&lt;/span&gt;&lt;span style=&quot;background-color: initial;&quot;&gt;,&amp;nbsp;&lt;/span&gt;&lt;span style=&quot;background-color: initial;&quot;&gt;startDate:&amp;nbsp;&lt;/span&gt;&lt;span style=&quot;background-color: initial;&quot;&gt;DateTime,&amp;nbsp;&lt;/span&gt;&lt;span style=&quot;background-color: initial;&quot;&gt;endDate:&lt;/span&gt;&lt;span style=&quot;background-color: initial;&quot;&gt;&amp;nbsp;DateTime,&amp;nbsp;&lt;/span&gt;&lt;span style=&quot;background-color: initial;&quot;&gt;startTime:&amp;nbsp;&lt;/span&gt;&lt;span style=&quot;background-color: initial;&quot;&gt;TimeSpan,&amp;nbsp;&lt;/span&gt;&lt;span style=&quot;background-color: initial;&quot;&gt;endTime:&lt;/span&gt;&lt;span style=&quot;background-color: initial;&quot;&gt;&amp;nbsp;TimeSpan)&lt;/span&gt;&lt;/p&gt;&lt;p style=&quot;margin:0px;margin-left:4px;&quot;&gt;&lt;span style=&quot;background-color: initial;&quot;&gt;UpdateSchedule(m:&amp;nbsp;&lt;/span&gt;&lt;span style=&quot;background-color: initial;&quot;&gt;MedicalWorker&lt;/span&gt;&lt;span style=&quot;background-color: initial;&quot;&gt;,&amp;nbsp;&lt;/span&gt;&lt;span style=&quot;background-color: initial;&quot;&gt;startDate:&amp;nbsp;&lt;/span&gt;&lt;span style=&quot;background-color: initial;&quot;&gt;DateTime,&amp;nbsp;&lt;/span&gt;&lt;span style=&quot;background-color: initial;&quot;&gt;endDate:&lt;/span&gt;&lt;span style=&quot;background-color: initial;&quot;&gt;&amp;nbsp;DateTime,&amp;nbsp;&lt;/span&gt;&lt;span style=&quot;background-color: initial;&quot;&gt;startTime:&lt;/span&gt;&lt;span style=&quot;background-color: initial;&quot;&gt;&amp;nbsp;TimeSpan,&amp;nbsp;&lt;/span&gt;&lt;span style=&quot;background-color: initial;&quot;&gt;endTime:&amp;nbsp;&lt;/span&gt;&lt;span style=&quot;background-color: initial;&quot;&gt;TimeSpan)&lt;/span&gt;&lt;/p&gt;&lt;p style=&quot;margin:0px;margin-left:4px;&quot;&gt;&lt;span style=&quot;background-color: initial;&quot;&gt;DeleteSchedule(&lt;/span&gt;&lt;span style=&quot;background-color: initial;&quot;&gt;m:&amp;nbsp;&lt;/span&gt;&lt;span style=&quot;background-color: initial;&quot;&gt;MedicalWorker,&amp;nbsp;&lt;/span&gt;&lt;span style=&quot;background-color: initial;&quot;&gt;startDate:&amp;nbsp;&lt;/span&gt;&lt;span style=&quot;background-color: initial;&quot;&gt;DateTime,&amp;nbsp;&lt;/span&gt;&lt;span style=&quot;background-color: initial;&quot;&gt;endDate:&amp;nbsp;&lt;/span&gt;&lt;span style=&quot;background-color: initial;&quot;&gt;DateTime)&lt;/span&gt;&lt;/p&gt;&lt;p style=&quot;margin:0px;margin-left:4px;&quot;&gt;getSchedule(m: MedicalWorker): ScheduleEntry [*]&lt;/p&gt;" style="verticalAlign=top;align=left;overflow=fill;html=1;whiteSpace=wrap;" parent="1" vertex="1">
          <mxGeometry x="920" y="591.98" width="666" height="91.67" as="geometry" />
        </mxCell>
        <mxCell id="KN9aBC3BBNikxTol-zla-1" value="&lt;p style=&quot;margin:0px;margin-top:4px;text-align:center;&quot;&gt;&lt;b&gt;Diagnosis&lt;/b&gt;&lt;/p&gt;&lt;hr size=&quot;1&quot; style=&quot;border-style:solid;&quot;&gt;&lt;p style=&quot;margin: 0px 0px 0px 4px;&quot;&gt;+ description: string&lt;/p&gt;&lt;p style=&quot;margin: 0px 0px 0px 4px;&quot;&gt;+ dateDiagnosed: DateTime&lt;/p&gt;&lt;p style=&quot;margin: 0px 0px 0px 4px;&quot;&gt;+ treatment: string&lt;/p&gt;&lt;p style=&quot;margin: 0px 0px 0px 4px;&quot;&gt;- isActive: boolean&lt;/p&gt;&lt;hr size=&quot;1&quot; style=&quot;border-style:solid;&quot;&gt;&lt;p style=&quot;margin:0px;margin-left:4px;&quot;&gt;+ getStatus(): boolean&lt;/p&gt;&lt;p style=&quot;margin:0px;margin-left:4px;&quot;&gt;+ updateTreatment()&lt;/p&gt;&lt;p style=&quot;margin:0px;margin-left:4px;&quot;&gt;+ updateStatus()&lt;/p&gt;" style="verticalAlign=top;align=left;overflow=fill;html=1;whiteSpace=wrap;" parent="1" vertex="1">
          <mxGeometry x="40" y="946.25" width="160" height="153.75" as="geometry" />
        </mxCell>
        <mxCell id="ArjH_gJLyMAwuev-VnE--1" value="&lt;p style=&quot;margin:0px;margin-top:4px;text-align:center;&quot;&gt;&lt;b&gt;scheduleEntry&lt;/b&gt;&lt;/p&gt;&lt;hr size=&quot;1&quot; style=&quot;border-style:solid;&quot;&gt;&lt;p style=&quot;margin:0px;margin-left:4px;&quot;&gt;+ m: MedicalWorker&lt;/p&gt;&lt;p style=&quot;margin:0px;margin-left:4px;&quot;&gt;+ StartDate: DateTime&lt;/p&gt;&lt;p style=&quot;margin:0px;margin-left:4px;&quot;&gt;+ EndDate: DateTime&lt;/p&gt;&lt;p style=&quot;margin:0px;margin-left:4px;&quot;&gt;+ StartTime: TimeSpan&lt;/p&gt;&lt;p style=&quot;margin:0px;margin-left:4px;&quot;&gt;+ EndTime: TimeSpan&lt;/p&gt;&lt;p style=&quot;margin:0px;margin-left:4px;&quot;&gt;&lt;br&gt;&lt;/p&gt;" style="verticalAlign=top;align=left;overflow=fill;html=1;whiteSpace=wrap;" parent="1" vertex="1">
          <mxGeometry x="1173" y="410" width="160" height="113.28" as="geometry" />
        </mxCell>
        <mxCell id="ArjH_gJLyMAwuev-VnE--5" value="" style="endArrow=diamondThin;endFill=0;endSize=24;html=1;rounded=0;entryX=0.5;entryY=0;entryDx=0;entryDy=0;exitX=0.5;exitY=1;exitDx=0;exitDy=0;" parent="1" source="ArjH_gJLyMAwuev-VnE--1" target="cYZlChJQ-sGTbZ9Pjbkg-96" edge="1">
          <mxGeometry width="160" relative="1" as="geometry">
            <mxPoint x="790" y="510" as="sourcePoint" />
            <mxPoint x="950" y="510" as="targetPoint" />
          </mxGeometry>
        </mxCell>
        <mxCell id="ArjH_gJLyMAwuev-VnE--6" value="" style="endArrow=open;endFill=1;endSize=12;html=1;rounded=0;entryX=1;entryY=0.5;entryDx=0;entryDy=0;exitX=0;exitY=0.5;exitDx=0;exitDy=0;" parent="1" source="cYZlChJQ-sGTbZ9Pjbkg-96" target="cYZlChJQ-sGTbZ9Pjbkg-79" edge="1">
          <mxGeometry width="160" relative="1" as="geometry">
            <mxPoint x="1010" y="730" as="sourcePoint" />
            <mxPoint x="1020" y="590" as="targetPoint" />
          </mxGeometry>
        </mxCell>
        <mxCell id="E-bbsvXQKNSzDjorVgvr-1" value="" style="endArrow=diamondThin;endFill=1;endSize=24;html=1;rounded=0;exitX=0.5;exitY=0;exitDx=0;exitDy=0;edgeStyle=orthogonalEdgeStyle;entryX=0.75;entryY=1;entryDx=0;entryDy=0;" edge="1" parent="1" source="cYZlChJQ-sGTbZ9Pjbkg-51" target="cYZlChJQ-sGTbZ9Pjbkg-28">
          <mxGeometry width="160" relative="1" as="geometry">
            <mxPoint x="160" y="550" as="sourcePoint" />
            <mxPoint x="320" y="550" as="targetPoint" />
          </mxGeometry>
        </mxCell>
        <mxCell id="E-bbsvXQKNSzDjorVgvr-2" value="-timesheet" style="text;html=1;align=center;verticalAlign=middle;resizable=0;points=[];autosize=1;strokeColor=none;fillColor=none;" vertex="1" parent="1">
          <mxGeometry x="840" y="610" width="80" height="30" as="geometry" />
        </mxCell>
      </root>
    </mxGraphModel>
  </diagram>
</mxfile>
